<svg viewBox="0 0 387.13 61.11" xmlns="http://www.w3.org/2000/svg" id="Layer_1">
  <defs>
    <style>
      .cls-1 {
        fill:#eef3fb;
      }
    </style>
  </defs>
  <g>
    <path d="M33.27,57.87c-.95-.82-1.02-1.75-1-2.1-.15.04-.29,0-.39-.06-.19,1.04-.93,1.45-1.13,1.54-.17,2.67,1.23,3.56,2.08,3.86.05.02.08,0,.08-.01.03-.03.03-.06.02-.09-.17-.53-.06-1.32.14-1.79.21-.5.19-1.18.18-1.34Z" class="cls-1"></path>
    <path d="M8.53,13.54c.26.2,1.58,1.22,3.62,2.79,3.9,3.01,10.45,8.06,17.32,13.36.94.72,1.87,1.45,2.81,2.18.04.03.08.06.12.09,3.11,2.41,6.23,4.81,9.13,7.05.17.13.35.27.52.4,3.82,2.94,7.23,5.58,9.76,7.54h0c2.08,1.6,3.55,2.74,4.17,3.22.08.06.16.08.25.08.12,0,.24-.05.32-.16l2.12-2.79c.13-.17.1-.42-.07-.56-1.18-.91-5.55-4.28-11.2-8.64-3.45-2.67-7.39-5.71-11.36-8.78-.04-.03-.08-.06-.12-.09-.31-.24-.62-.48-.93-.72-.84-.65-1.68-1.29-2.52-1.94-.02-.02-.05-.04-.06-.06-4.64-3.58-9.17-7.07-12.84-9.91-4.72-3.64-8.06-6.22-8.49-6.55-1.31-1-3.68-1.17-4.67-1.2h-.01c-.23,0-.39.22-.32.44.3.96,1.14,3.23,2.45,4.22Z" class="cls-1"></path>
    <path d="M38.61,57.62s.04-.06.03-.08c0-.03-.03-.06-.06-.07-.54-.17-1.1-.71-1.37-1.15-.28-.47-.85-.84-.99-.92-1.2.3-1.99-.16-2.26-.38-.02.06-.05.1-.09.14-.06.05-.12.08-.18.1.55.62.56,1.57.56,1.77,2.1,1.71,3.64,1.11,4.37.6Z" class="cls-1"></path>
    <path d="M13.99,11.01c.17.16.34.31.51.47.04.03.06.05.13.07.07.01.13-.06.19-.1.06-.05.12-.1.16-.15.24-.27.34-.62.53-.91.28-.44.63-.66,1.12-.87.7-.3,1.46-.27,2.21-.39.74-.11,1.5-.12,2.23-.3.95-.23,1.84-.71,2.54-1.4.21-.2.67-1,.74-1.27.07-.3-.33-.63-.52-.39-.6.76-1.28,1.07-1.76,1.38-.54.36-1.27.5-1.95.57-.16.02-.34,0-.5-.04-.87-.25-1.35-.98-1.24-1.71.14-.99,1.19-1.84,1.91-2.53.37-.35.79-.63,1.21-.92l3.88-2.14c.17-.12.08-.4-.14-.38-1.82.23-4.44,1.44-5.8,2.68-2.62,2.39-4.85,4.36-6.26,7.45-.02.05-.01.09.02.12.15.16.58.58.78.76Z" class="cls-1"></path>
    <path d="M28.7,20.46c0,.68.55,1.23,1.23,1.23s1.24-.55,1.24-1.23-.55-1.24-1.24-1.24-1.23.55-1.23,1.24Z" class="cls-1"></path>
    <path d="M44.28,14.96c-.01-.09-.32-2.21-3.97-3.15l.55-2.16s0-.1-.02-.14c-.03-.05-.07-.08-.12-.09l-.14-.04c-2.65-.67-5.38-1.02-8.12-1.02s-5.48.35-8.12,1.02l-.15.04c-.1.03-.16.13-.14.23l.56,2.15c-3.66.94-3.98,3.07-3.98,3.16l-.06.45c-.01.06.03.13.07.17,0,0,.06.03.08.05t.03,0c.06,0,.11-.03.15-.07l.29-.34c.43-.5,1.07-.76,1.62-.89-.67.83-.74,1.79-.74,1.83l-.03.46c0,.06.05.13.08.16.03.03.08.04.08.04h.02c.06,0,.12-.03.16-.08l.27-.37c.9-1.21,5.09-2.04,5.52-2.12h.12s.01-.02.02-.02c.05-.01.1-.02.14-.06.04-.04.06-.1.05-.16l-.09-.85c1.33-.19,2.69-.29,4.04-.29s2.7.1,4.02.28l-.09.83c0,.06.01.12.05.16s.08.05.13.06c0,0,.01,0,.02,0l.13.03c.42.08,4.61.91,5.51,2.12l.27.37c.04.05.1.08.16.08h.02s.06-.01.1-.05c.05-.03.08-.09.08-.16l-.03-.46s-.07-1-.75-1.83c.54.14,1.19.39,1.62.89l.3.34s.09.07.14.07c.01,0,.03,0,.04,0,0,0,.05-.02.08-.05s.08-.1.08-.17l-.06-.45ZM22.81,15.51c.17-.46.51-1.07,1.21-1.46l.78-.43h-.9c-.06,0-1.29,0-2.32.6.06-.08.12-.16.19-.23.45-.52,1.35-1.22,3.09-1.66l.34,1.31v.02s0,.15,0,.15l1.6.19c-1.24.3-2.97.82-3.97,1.52ZM26.3,13.46c.52-.12,1.05-.22,1.57-.3l.05.5-1.62-.19ZM32.47,12.29c-2.32,0-4.64.28-6.9.84l-.83-3.24c5.07-1.26,10.41-1.26,15.47,0l-.83,3.24c-2.26-.56-4.58-.84-6.9-.84ZM37.06,13.16c.52.08,1.04.19,1.57.3l-1.62.19.05-.5ZM41.02,13.62h-.89l.78.43c.69.39,1.04,1,1.21,1.46-1-.7-2.74-1.22-3.97-1.52l1.59-.19v-.08s.35-1.38.35-1.38c1.9.47,2.81,1.28,3.25,1.88-1.04-.58-2.26-.59-2.32-.59Z" class="cls-1"></path>
    <path d="M22.84,45.52c-.89-.08-1.77-.37-2.54-.82-.21-.12-.47-.25-.68-.12-.23.15-.16.52-.02.75.43.69,1.23,1.04,2,1.29,1.35.43,2.76.68,4.17.72.3.01.61.01.87.14.33.16.56.48.71.81.07.15.14.31.29.38.28.12.55-.19.7-.46.7-1.25,1.35-2.56,2.37-3.55.47-.45,1.03-.87,1.24-1.48.04-.11.06-.23.06-.34,0-.14-.03-.28-.12-.39-.13-.16-.34-.21-.54-.22-.52-.02-1,.33-1.53.38-2.88.25-4.9-2.67-5.08-2.94-.09-.1-.23-.11-.34-.03-.08.06-.17.14-.25.2-.61.49-1.29,1.03-1.85,1.47-.07.06-.15.12-.17.21-.02.11.05.21.12.3.44.57,1.05.98,1.48,1.55.2.25.4.52.51.83.11.3.11.67-.07.94-.28.4-.85.45-1.34.4Z" class="cls-1"></path>
    <path d="M32.17,46.78s-.05,0-.06.01c-.01,0-.03.03-.02.06.15.55-.04,1.35-.29,1.82-.26.48-.29,1.16-.29,1.32.85.87.85,1.8.82,2.16.06-.03.12-.03.17-.03.1,0,.19.03.26.08.31-.98.96-1.36,1.14-1.46.3-2.01-.28-3.34-1.73-3.96Z" class="cls-1"></path>
    <path d="M50.4,53.62c-.06-.12-.18-.22-.32-.22h-.02c-.06,0-.13.03-.19.06-.03,0-.05.02-.07.03-.19.08-.4.1-.6.11-.36.03-.74.04-1.1.05-.96.03-1.96.06-2.88.38-.28.1-.47.19-.63.31-.21.16-.39.39-.52.68-.08.17-.09.3-.05.39.05.12.19.17.3.22.5.18,1.05.22,1.57.11.16-.03.32-.08.47-.12l.67-.19c.31-.09.63-.19.93-.32.14-.06.28-.14.43-.21.22-.11.45-.23.69-.31.28-.09.82-.21,1.25.07.07.05.16.13.19.23.08-.25.03-.55,0-.8-.03-.16-.05-.32-.13-.46Z" class="cls-1"></path>
    <path d="M32.17,54.97c-.12,0-.23.1-.25.23,0,.07.01.14.06.17.04.06.1.09.17.09.03,0,.06,0,.1-.01.09-.03.15-.1.16-.2,0-.06-.01-.13-.05-.18-.05-.05-.1-.08-.16-.09h-.03Z" class="cls-1"></path>
    <path d="M34.7,51.15v-.08s.02-.01.02-.02h0c-1.18.28-1.44,1.43-1.47,1.73,1.18-.34,1.36-1.2,1.46-1.62Z" class="cls-1"></path>
    <path d="M33.74,53.51c0-.08,0-.14-.05-.19-.04-.06-.1-.09-.18-.1h-.02c-.14,0-.25.1-.27.23,0,.02,0,.04,0,.06,0,.05.02.1.05.14.04.05.1.08.19.09.07,0,.14-.02.25-.14l.03-.09Z" class="cls-1"></path>
    <path d="M33.38,54.39c-.14,0-.25.1-.27.25v.03c0,.14.1.25.25.26.16,0,.27-.09.28-.23.02-.15-.09-.28-.24-.3h-.03Z" class="cls-1"></path>
    <path d="M32.92,54.09c.02-.16-.03-.31-.12-.43-.1-.12-.25-.2-.4-.22h-.06c-.3,0-.56.23-.59.52-.01.16.03.32.13.43.1.13.23.2.39.22h.06c.3,0,.55-.23.58-.52Z" class="cls-1"></path>
    <path d="M54.39,50.13v-.04c-.34-.27-.66-.49-.96-.71-.69-.5-1.29-.94-1.96-1.63-.06-.06-.12-.12-.18-.12-.09-.01-.1,0-.1,0-.19.24-.34.49-.49.72-.3.48-.6.93-1.08,1.27-.43.29-.96.3-1.47.28-.24,0-.47-.01-.71-.03-.43-.02-.87-.04-1.3-.04-.28,0-.58,0-.85.03-1.09.08-1.98.38-2.65.87-.22.17-.38.32-.47.49-.33.55-.13,1.28.08,1.86.26.72.56,1.42.89,2.1.08-.1.13-.22.19-.34.04-.08.08-.17.13-.25.17-.29.45-.54.87-.75,1.07-.58,1.97-.59,3.02-.6,1.05-.02,2.25-.03,3.98-.58.9-.29,2.76-2.2,3.06-2.53Z" class="cls-1"></path>
    <path d="M61.77,25.4c-.07-.23-.08-.32-.14-.32-.12.02-.06.18-.06.47.04,2.08-.16,4.16-.58,6.19-.21,1.04-.5,2.09-1.14,2.94-.46.61-1.07,1.09-1.68,1.57-1.24.99-2.45,2.03-3.61,3.12-.36.34-.75.79-.61,1.26.08.24.28.42.47.58.64.55,1.27,1.1,1.91,1.65-.33-.76.03-1.73.62-2.3,1.3-1.25,3.04-2.17,4.25-3.51,2.03-2.28,3.14-5.35,3.05-8.4,0-.09,0-.19-.05-.23-.05-.06-.1-.03-.1-.03-.12.06-.14.21-.16.34-.18,1.19-.65,2.35-1.35,3.33-.17.25-.45.5-.72.39.4-2.33.54-4.78-.12-7.04Z" class="cls-1"></path>
    <path d="M43.84,2.51s.01,0,.02.01c.42.28.83.57,1.2.91.72.69,1.77,1.54,1.91,2.53.11.74-.38,1.47-1.24,1.71-.16.05-.34.06-.5.04-.67-.06-1.41-.21-1.95-.57-.48-.32-1.16-.63-1.76-1.38-.19-.24-.6.1-.52.39.06.27.53,1.07.74,1.27.7.69,1.59,1.17,2.54,1.4.73.17,1.49.19,2.23.3.76.12,1.51.09,2.21.39.49.21.83.43,1.12.87.17.26.21.6.58.96.08.08.2.07.28,0,.42-.37.87-.69,1.34-1.01.09-.06.12-.18.08-.28-1.41-3.05-3.62-5.01-6.22-7.38C44.55,1.44,41.93.23,40.11,0c-.21-.03-.31.26-.14.38l3.87,2.13Z" class="cls-1"></path>
    <path d="M41.7,29.48c0,.68.55,1.24,1.23,1.24s1.24-.56,1.24-1.24-.56-1.23-1.24-1.23-1.23.55-1.23,1.23Z" class="cls-1"></path>
    <path d="M43.63,17.87c-3.21,2.48-6.93,5.35-10.75,8.3,1.13.87,2.26,1.75,3.39,2.63.04.03.08.06.12.09,5.99-4.63,11.64-8.99,15.38-11.88,2.54-1.96,4.2-3.24,4.5-3.47,1.32-1,2.15-3.27,2.46-4.22.07-.22-.1-.45-.33-.44-1,.03-3.36.2-4.67,1.2-.47.36-4.42,3.41-9.87,7.61-.08.06-.16.12-.23.18Z" class="cls-1"></path>
    <path d="M55.47,42.64c-.07-.03-.42.21-.75.52l3.51,2.39c.27-.39,1.68-2.41,2.34-3.51l.06-.12c.19-.32.36-.6.28-.95-.03-.12-.15-.24-.28-.27h-.02s-.43-.15-1.09.95c-.35.59-.75,1.25-1.32,1.68-.14.1-.3.21-.47.27-.32.11-.65.07-1.02-.11-.23-.11-.7-.45-1.01-.67-.12-.08-.21-.15-.24-.17Z" class="cls-1"></path>
    <path d="M17.48,57.52l.08.03c.47.16,1.93.61,4.54.56.43-.01,1.97-.1,2.29-.26.41-.19.73-.53,1.02-.87.39-.45.51-.74.64-1.07.14-.36.3-.77.85-1.49l.02-.03c.1-.12.31-.39.27-.69-.03-.17-.14-.32-.33-.46-.17-.12-.34-.3-.52-.5-.32-.34-.68-.73-1.23-1l-.03-.02c-.34-.17-.45-.19-.46-.19l-1.38.13c-.11.01-.21.03-.28.08s-.08.16-.1.26c-.21,1.07-.53,1.99-1,2.81-.3.52-.94,1.15-1.48,1.28-2.52.61-4.53-.58-5.39-1.09-.18-.1-.32-.19-.4-.22-.04-.01-.08-.02-.12-.02-.06,0-.12.01-.16.05-.1.06-.17.19-.17.32,0,.2.1.42.33.66.49.5,1.12.83,1.73,1.15.41.21.83.43,1.27.56Z" class="cls-1"></path>
    <path d="M57.28,22.06c-.49.31-1.02.58-1.59.64-.59.06-1.23-.16-1.56-.65-.25-.37-.28-.84-.3-1.29-.03-.85-.03-2.69,0-3.81,0-.16-.19-.27-.32-.16-.36.27-.75.49-1.16.69-.03.01-.05.03-.08.05-.03.01-.05.04-.07.06-.14.12-.23.28-.25.47-.08.88-.06,2.35-.04,2.95.09,2.32-.16,4.56-1.36,6.56-.14.23-.32.43-.54.58-1.95,1.23-2.01-3.33-1.4-4.39.07-.12.08-.28,0-.39-.13-.22-.38-.14-.54-.02-.34.26-.51.69-.63,1.11-.07.22-.61,2.68-.22,5.65.15,1.12.34,2.34-.23,3.32-.38.65-1.05,1.07-1.64,1.54-.06.05-.12.1-.14.17-.03.12.07.22.16.3.81.74,1.61,1.47,2.41,2.21l.13.05c1.35-1.12,3.29-1.03,5.05-1.1,2.02-.08,3.89-.52,5.38-1.89.09-.08.17-.17.25-.27.15-.2-.05-.47-.28-.39-.4.13-.83.21-1.2.37-1.51.65-3.8.48-4.82.18-.89-.27-1.4-1.33-1.46-2.26-.07-1.12.58-2.1,1.27-2.96.85-1.05,1.8-2.02,2.82-2.9,1.66-1.42,3.6-2.56,4.98-4.25,1.71-2.1,2.48-3.95,2.21-5.87-.04-.29-.45-.32-.54-.05l-.04.13c-.73,2.31-2.21,4.33-4.24,5.64Z" class="cls-1"></path>
    <path d="M57.18,43.01h.02c.52,0,1.19-.7,1.2-.71.25-.26.45-.57.63-.87.16-.27.34-.54.55-.79l.06-.08c.2-.23.43-.5.82-.43-.03-.04-.06-.07-.09-.11-.21-.24-.32-.37-.63-.53-.1-.05-.2-.09-.3-.09-.02,0-.03,0-.05,0-.11.02-.21.12-.3.21-.14.13-.32.29-.54.47-.88.75-2.35,2-1.72,2.76.09.11.2.17.34.17Z" class="cls-1"></path>
    <path d="M7.27,40.67c.6.58.98,1.42.65,2.18.63-.55,1.27-1.1,1.91-1.65.19-.16.39-.34.47-.58.14-.47-.25-.93-.61-1.26-1.16-1.09-2.37-2.13-3.61-3.12-.6-.48-1.22-.95-1.68-1.57-.63-.85-.93-1.9-1.14-2.94-.4-1.9-.6-3.86-.59-5.8,0-.41.15-1.2.03-1.23-.11-.03-.26.78-.36,1.17-.5,2.13-.36,4.4.01,6.57-.28.11-.55-.15-.72-.39-.7-.98-1.16-2.14-1.35-3.33-.02-.13-.07-.41-.19-.39-.1.01-.12.16-.12.21-.12,3.09.99,6.2,3.05,8.5,1.21,1.35,2.91,2.38,4.22,3.64Z" class="cls-1"></path>
    <path d="M49.68,54.81l-.27.13c-.12.1-.83.54-1.81.88-.96.33-2.45.65-4,.28-.62-.15-.99-.75-1.24-1.26-.45-.89-.76-1.84-.95-2.81-.02-.1-.04-.2-.1-.26-.06-.06-.17-.07-.28-.08l-1.37-.13s-.08,0-.13,0-.09,0-.14.02c-.08.03-.15.1-.21.17-.14.15-.31.4-.52.69-.45.63-1.01,1.4-1.51,1.72-.06.03-.12.17-.16.27-.04.11,0,.19.09.32.02.03.04.06.06.1.65,1.11,1.29,1.57,2.26,2.02.21.1.53.31.84.52.31.2.63.41.83.5.35.17.75.21,1.09.23.47.03.93.01,1.39-.04.34-.03.69-.09,1.02-.14l1.19-.19c.34-.05.69-.11,1.02-.21.45-.14.87-.36,1.27-.56.61-.32,1.25-.65,1.73-1.15.23-.24.34-.45.32-.66,0-.12-.08-.25-.2-.32-.05-.03-.14-.07-.24-.02Z" class="cls-1"></path>
    <path d="M5.71,40.08c-.21-.18-.4-.34-.52-.47-.1-.1-.19-.19-.3-.21-.12-.02-.24.03-.35.08-.31.16-.43.29-.63.53-.03.04-.06.07-.09.11.38-.07.62.21.82.43l.07.08c.21.25.38.52.54.79.19.3.38.61.63.87.01,0,.68.71,1.2.71h.02c.14,0,.25-.06.34-.17.63-.76-.84-2.01-1.72-2.76Z" class="cls-1"></path>
    <path d="M10.46,26.45c1.02.88,1.97,1.86,2.82,2.9.69.85,1.35,1.84,1.27,2.96-.06.93-.71,1.71-1.59,2.02-1.66.59-3.54.92-5.05.27-.38-.17-.81-.24-1.2-.37-.24-.08-.43.19-.29.39.07.1.16.19.25.27,1.49,1.36,3.73,1.58,5.74,1.67,1.55.06,3.23,0,4.53.74.88-.75,2.81-2.2,2.86-2.2.08-.05.16-.1.24-.16,0,0-.02-.01-.03-.01-.6-.47-1.27-.89-1.64-1.54-.57-.98-.38-2.2-.23-3.32.39-2.96-.15-5.43-.22-5.65-.12-.41-.29-.85-.63-1.11-.16-.12-.41-.2-.54.02-.07.12-.06.27,0,.39.61,1.06.56,5.62-1.4,4.39-.23-.14-.4-.34-.54-.58-1.2-2-1.46-4.24-1.36-6.56.02-.5.04-1.62,0-2.5-.03-.01-.06-.03-.08-.05-.2-.16-.41-.31-.63-.45-.1-.06-.19-.12-.29-.17-.07-.02-.13-.05-.17-.1-.03-.02-.05-.03-.06-.05-.21-.12-.41-.25-.63-.38,0,0-.02,0-.03-.01.03,1.13.02,2.7,0,3.46-.02.45-.05.92-.3,1.29-.33.49-.97.71-1.56.65-.57-.06-1.11-.33-1.59-.64-2.03-1.31-3.51-3.33-4.24-5.64l-.04-.13c-.09-.28-.5-.25-.54.05-.27,1.91.5,3.76,2.21,5.87,1.38,1.69,3.32,2.83,4.98,4.25Z" class="cls-1"></path>
    <path d="M36.54,20.46c0-.69-.56-1.24-1.24-1.24s-1.23.55-1.23,1.24.55,1.23,1.23,1.23,1.24-.55,1.24-1.23Z" class="cls-1"></path>
    <path d="M19.93,53.84c.41.21.69.46.87.75.1.17.16.32.2.46.4-.57.75-1.24,1.01-1.96.22-.61.41-1.31.08-1.86-.1-.17-.25-.32-.48-.49-.67-.49-1.56-.79-2.65-.87-.71-.06-1.45-.03-2.15,0-.23.01-.47.02-.71.03-.5.02-1.04.01-1.47-.28-.49-.34-.78-.79-1.08-1.27-.07-.12-.15-.24-.23-.36-.17.13-.34.25-.52.38-.36.26-.72.52-1.07.82-.19.16-.38.33-.57.49-.3.28-.61.56-.95.8.92.93,2.1,1.98,2.72,2.18,1.73.55,2.92.56,3.98.58,1.05.01,1.95.03,3.02.6Z" class="cls-1"></path>
    <path d="M31.58,53.35c0-.07-.01-.14-.06-.2s-.11-.09-.18-.1h-.03c-.14-.01-.25.1-.27.24,0,.08.01.15.06.2.05.06.11.09.19.1.16,0,.28-.1.29-.24Z" class="cls-1"></path>
    <path d="M20.73,29.48c0,.68.56,1.24,1.24,1.24s1.23-.56,1.23-1.24-.55-1.23-1.23-1.23-1.24.55-1.24,1.23Z" class="cls-1"></path>
    <path d="M15.53,54.73c.42.25.91.54,1.45.7,1.22.37,2.16.56,2.74.34.17-.06.26-.1.39-.19.12-.08.24-.24.23-.45-.01-.28-.25-.56-.67-.78-.05-.03-.1-.05-.15-.08-.16-.09-.32-.18-.49-.24-.93-.31-1.86-.34-2.85-.38-.34-.01-.71-.03-1.06-.05-.2-.01-.8-.1-1.02-.17-.06-.02-.21-.07-.27-.04,0,0-.01,0-.02.03-.06.23-.13.64-.15.8-.05.27,0,.48.07.71.1-.34.25-.54.45-.62.35-.14.78.11,1.33.43Z" class="cls-1"></path>
    <path d="M8.81,42.64s-.12.08-.23.17c-.31.23-.78.56-1.01.67-.38.18-.71.22-1.03.11-.17-.06-.33-.16-.47-.27-.58-.42-.97-1.09-1.33-1.68-.51-.86-.88-.96-1.02-.96-.05,0-.06,0-.06.01-.15.03-.27.15-.3.27-.07.36.09.63.28.95l.07.12c.65,1.11,2.06,3.12,2.34,3.51l3.51-2.39c-.33-.31-.68-.56-.75-.52Z" class="cls-1"></path>
    <path d="M11.63,48c2.72-2.1,6.98-5.39,11.81-9.11,2.7-2.1,5.6-4.32,8.49-6.56-1.18-.91-2.35-1.81-3.52-2.71-2.68,2.07-5.34,4.12-7.84,6.05-7.14,5.52-12.98,10.03-14.36,11.09-.17.14-.21.38-.07.56l2.12,2.79c.13.17.38.21.56.07.43-.33,1.26-.97,2.41-1.86.13-.1.27-.2.4-.31Z" class="cls-1"></path>
    <path d="M28.6,53.76l-.08.04h0c.32.27.7.39,1.11.39.56,0,1.04-.24,1.2-.34-.38-.27-.76-.4-1.14-.4-.48,0-.87.2-1.09.3Z" class="cls-1"></path>
    <path d="M32.33,37.28c-.68,0-1.23.55-1.23,1.23s.55,1.23,1.23,1.23,1.24-.55,1.24-1.23-.56-1.23-1.24-1.23Z" class="cls-1"></path>
    <path d="M27.33,52.21c.33.44.93.76,1.07.83.39-.13.75-.18,1.07-.18.64,0,1.09.21,1.29.32.05-.16.13-.25.21-.3-.58-.39-.74-1.46-.76-1.68-2.25-1.53-3.75-.72-4.43-.1-.02.02-.01.05-.01.05,0,.01.01.03.03.03.57.08,1.22.6,1.55,1.04Z" class="cls-1"></path>
    <path d="M32.77,52.83c0-.06,0-.14-.06-.21-.05-.05-.11-.08-.17-.09h-.02s-.01-.01-.01-.01c-.14,0-.26.11-.28.25v.03c0,.14.11.26.25.27.16,0,.28-.1.29-.24Z" class="cls-1"></path>
    <path d="M31.15,54.23c-.12,0-.23.1-.24.22v.03c0,.05.02.1.05.14.03.05.09.08.16.09h0s.06,0,.1-.01c.03-.01.06-.03.08-.05.05-.04.08-.09.08-.16,0-.13-.08-.25-.22-.27h-.02Z" class="cls-1"></path>
    <path d="M38.83,47.46c.27-.12.58-.12.88-.14,1.41-.04,2.82-.28,4.17-.72.77-.25,1.57-.6,1.99-1.29.15-.23.22-.6-.02-.75-.2-.13-.47,0-.67.12-.78.45-1.65.74-2.54.82-.49.05-1.06,0-1.34-.4-.19-.27-.18-.63-.07-.94.11-.31.31-.58.51-.83.43-.57,1.04-.98,1.48-1.55.06-.08.14-.19.12-.3-.02-.08-.1-.15-.17-.21-.49-.38-1.05-.83-1.58-1.26-.17-.14-.35-.28-.52-.41-.1-.08-.25-.06-.34.03-.17.28-2.2,3.19-5.08,2.94-.52-.05-1-.39-1.53-.38-.19,0-.4.06-.53.22-.09.1-.13.24-.13.38,0,.12.03.23.06.34.21.61.77,1.03,1.24,1.48,1.02,1,1.68,2.3,2.37,3.55.12.23.34.49.57.49.05,0,.08,0,.13-.03.15-.07.23-.23.3-.38.16-.33.38-.65.71-.81Z" class="cls-1"></path>
    <path d="M30.9,50.61l-.07-.06s-.01,0-.01,0c-.27,1.13.56,1.86.9,2.1.23-1.2-.47-1.77-.82-2.04Z" class="cls-1"></path>
    <path d="M36.05,54.53l.06-.03s.01,0,.02,0h-.01c-.37-.38-.82-.58-1.34-.58-.41,0-.77.12-.91.18.41.39.87.58,1.35.58.35,0,.66-.1.83-.16Z" class="cls-1"></path>
    <path d="M38.35,49.92s-.03-.05-.05-.05c0,0-.04-.01-.06.02-.36.43-1.11.74-1.64.81-.54.07-1.11.44-1.24.52-.22,1.21-.95,1.73-1.26,1.91.06.05.1.11.12.19.02.06.02.13,0,.18.18-.05.36-.07.54-.07.6,0,1.13.23,1.27.3,2.56-1.29,2.48-3.1,2.32-3.82Z" class="cls-1"></path>
    <path d="M26.58,58.07c.01.07.06.12.13.15.06.02.14,0,.19-.05.34-.33.93-.62,1.44-.71.54-.1,1.09-.5,1.21-.6.16-1.29.91-1.9,1.16-2.07-.07-.09-.1-.17-.12-.24-.94.54-1.93.1-2.15,0-1.6.83-2.01,2.7-1.86,3.52Z" class="cls-1"></path>
    <path d="M31.27,55.97c.17-.4.21-.78.21-.95-1.13.5-1.21,1.47-1.25,1.9v.06s0,.01,0,.01c.56-.21.87-.62,1.04-1.02Z" class="cls-1"></path>
    <path d="M33.58,57.34l.05.05s0,0,0,.01h0c.35-1.19-.52-1.99-.76-2.19-.3,1.2.41,1.85.71,2.13Z" class="cls-1"></path>
    <path d="M29.33,11.5s.06,0,.08,0c.13-.01.22-.06.28-.09.06-.03.08-.04.09-.02.01.01.04.01.07,0,.03-.01.05-.03.05-.06,0-.04,0-.31.01-.36,0-.03-.04-.06-.06-.07-.02,0-.04,0-.05.02,0,0-.01.02-.03.05-.05.1-.17.35-.37.37-.01,0-.02,0-.03,0-.21,0-.38-.21-.42-.51-.02-.18.02-.35.11-.47.06-.07.13-.12.21-.13.08,0,.15,0,.21.05.1.07.09.18.09.26,0,.03,0,.06,0,.08.01.03.06.04.06.04.03,0,.05-.01.05-.02.01-.02.04-.08.06-.14.04-.09.09-.19.1-.22h0v-.02s-.01-.03-.03-.04c0,0,0,0-.01-.01h0s-.03,0-.03,0c-.02,0-.05-.02-.08-.04-.09-.05-.23-.12-.44-.1-.21.02-.39.12-.52.28-.12.15-.17.34-.15.54.05.37.37.64.73.64Z" class="cls-1"></path>
    <path d="M37.63,11.85s.05,0,.08,0c.05,0,.1,0,.16.02.08.02.17.05.23.07.01,0,.02.01.03.01,0,0,0,0,.01,0,.01,0,.03-.01.04-.03,0-.02,0-.03,0-.04,0-.02-.03-.03-.04-.03-.03-.02-.08-.07-.07-.13,0,0,.02-.1.09-.4.05-.23.11-.51.11-.53h0c.02-.08.09-.11.12-.11.02,0,.06,0,.07-.04h0s-.04-.06-.06-.07h-.04c-.06,0-.14-.02-.22-.03-.08-.02-.15-.04-.21-.06h-.03s-.05-.01-.06,0c0,0-.02.02-.02.03,0,.01,0,.02,0,.03,0,.02.02.03.04.04.03.01.08.07.07.14l-.19.94c-.02.07-.08.1-.12.1-.03,0-.05.01-.06.04h0c0,.05.02.07.06.07h0Z" class="cls-1"></path>
    <path d="M33.08,11.1c0,.07-.06.11-.1.12-.02,0-.05.02-.05.06,0,.05.04.05.07.05h0c.06,0,.21-.01.24,0h0c.18,0,.36.01.55.03.13,0,.23.01.26.03,0,0,.02,0,.03,0,.02,0,.04,0,.05-.01.01,0,.02-.02.02-.03,0-.02,0-.03,0-.05,0-.02,0-.04,0-.07,0-.07.01-.12.02-.16h0s-.01-.04-.03-.05c-.02,0-.05,0-.07,0,0,0-.02.02-.03.03-.04.05-.11.13-.25.13l-.38-.02s-.03-.04-.03-.04l.04-.96c0-.09.1-.12.1-.12.03,0,.06-.02.06-.05,0-.01,0-.02,0-.03-.01-.02-.04-.02-.06-.02h0c-.06,0-.15.01-.25.01-.07,0-.15-.01-.2-.02h-.04s-.05,0-.06,0c-.01,0-.02.02-.02.04,0,.05.04.06.06.06.04,0,.1.05.09.12,0,.16,0,.33-.01.49,0,.16,0,.31-.01.47Z" class="cls-1"></path>
    <path d="M26.48,11.69c0,.08-.06.13-.09.15-.02,0-.05.02-.05.06,0,.02,0,.03.02.04,0,0,.02,0,.03,0,0,0,.02,0,.02,0,.02,0,.03-.01.05-.02.03-.01.05-.02.11-.03.06-.01.09-.01.12-.02.02,0,.04,0,.05,0,.04,0,.06-.02.06-.05,0-.01,0-.02,0-.03,0-.01-.02-.02-.05-.02h0s-.08-.01-.08-.1c0-.01.01-.53.02-.82.12.2.37.63.45.77,0,.03.05.03.06.03.03,0,.12-.01.15-.04.02-.01.02-.02.02-.03.04-.2.17-.82.19-.91.05.13.3.73.31.75h0c.02.07,0,.12-.04.13,0,0,0,0,0,0-.03,0-.08.03-.06.08.01.02.04.04.08.02.01,0,.03,0,.05-.02.05-.01.12-.03.18-.04.09-.01.16,0,.22-.01.06,0,.1-.02.1-.06h0s0-.02,0-.02c-.02-.02-.04-.03-.06-.03h0s-.1-.04-.14-.11c0-.02-.36-.9-.37-.91-.03-.07.02-.11.04-.12.01,0,.04-.01.04-.04,0-.01,0-.03,0-.04-.02-.03-.05-.03-.07-.03h-.01c-.06.02-.08.03-.18.05-.03,0-.05,0-.08,0-.06,0-.11,0-.12.05,0,.05-.04.18-.07.34-.03.16-.08.34-.11.5-.08-.12-.19-.32-.28-.48-.06-.11-.12-.21-.14-.23-.02-.04-.09-.03-.24.01-.02,0-.03,0-.04.01-.04,0-.07.01-.11.01-.01,0-.03,0-.04,0-.05,0-.06.03-.06.06,0,.05.04.05.06.05h0s.08.03.08.1c0,0,0,.25-.01.49,0,.3-.01.49-.01.49Z" class="cls-1"></path>
    <path d="M30.52,11.37s0,0,.01,0h.01s.06-.02.14-.02c.05,0,.09,0,.12,0,.02,0,.04,0,.06,0,.02,0,.07,0,.07-.05,0,0,0-.02,0-.03,0-.02-.03-.03-.05-.04-.03,0-.07-.04-.06-.11,0-.03.09-.53.15-.81.05.13.14.34.21.53.05.13.09.24.12.3.01.03.04.04.07.04.03,0,.1,0,.14-.02.02-.01.03-.02.03-.03.04-.11.15-.4.22-.61.06-.17.09-.23.1-.26.03.12.19.77.19.81.02.07-.03.1-.05.11,0,0,0,0-.01,0-.03,0-.06.01-.07.04v.02s0,.01,0,.01c0,.01,0,.02.02.03.02.01.04.01.06,0h.02c.06,0,.15-.02.23-.02.06,0,.11,0,.16.01.02,0,.04,0,.05,0,.03,0,.07,0,.09-.01,0,0,.02-.02.02-.03h0s-.04-.06-.06-.06c-.04-.01-.1-.05-.11-.13,0-.01-.04-.17-.08-.34-.12-.49-.14-.59-.15-.61-.02-.07.04-.1.06-.11.01,0,.04-.01.05-.03,0-.01,0-.02,0-.03-.01-.04-.04-.05-.07-.04h-.04s-.07.01-.14.01c-.03,0-.05,0-.08,0-.06,0-.11-.01-.13.03-.04.09-.2.52-.3.79-.06-.14-.15-.37-.21-.54-.04-.11-.07-.2-.09-.23-.02-.04-.08-.04-.22-.02-.02,0-.04,0-.06,0-.02,0-.04,0-.05,0-.03,0-.05,0-.09,0-.02,0-.04,0-.06,0,0,0-.02.02-.02.04,0,.01,0,.02,0,.03,0,.02.03.02.04.03h.01s.07.04.06.11c0,.02-.05.26-.09.48-.08.46-.09.48-.09.48-.02.07-.07.12-.11.14-.03,0-.06.03-.06.06,0,.05.03.05.06.05Z" class="cls-1"></path>
    <path d="M34.68,11.43s.04,0,.06,0c.03,0,.05,0,.11,0,.05,0,.08.01.12.02.02,0,.04.01.06.01.01,0,.04,0,.05,0,0,0,.02-.01.03-.03,0-.02,0-.03,0-.04,0-.02-.03-.03-.04-.03-.01,0-.03-.02-.03-.04,0-.02,0-.04.02-.07.08-.1.16-.21.24-.3,0,0,0,0,0,0,.07.12.12.22.16.29.02.04.03.06.04.07,0,.01,0,.03,0,.04-.01.03-.05.05-.07.05,0,0,0,0-.01,0-.02,0-.07.01-.07.06,0,.02.02.05.06.05.06,0,.22,0,.31.01.09.01.15.03.22.05,0,0,.02,0,.03,0,.02,0,.04,0,.05-.02.01,0,.02-.02.02-.03h0s-.02-.05-.03-.06h-.02s-.06-.08-.1-.13l-.02-.03s-.03-.05-.05-.11c-.06-.11-.15-.3-.24-.47,0-.02,0-.04,0-.05.15-.17.29-.32.3-.34.05-.06.09-.07.15-.09h.01s.04-.01.05-.03c0-.02,0-.03,0-.05-.02-.03-.07-.03-.11-.03-.03,0-.06,0-.12,0-.06,0-.09-.02-.12-.03-.02,0-.04-.01-.06-.02-.03-.01-.06,0-.08.03-.01.03,0,.06.04.08.04.01.07.02.07.03,0,0,0,.01-.01.03-.02.02-.11.12-.22.25,0,0,0,0,0,0,0,0,0,0,0,0-.06-.1-.12-.22-.13-.24-.01-.02-.01-.04,0-.05,0-.02.03-.04.05-.05.02,0,.09,0,.09-.05,0-.02,0-.06-.07-.06-.05,0-.21,0-.3-.01-.07,0-.13-.02-.18-.03-.01,0-.03,0-.05,0-.02,0-.08,0-.1.02v.02s0,.01,0,.01c0,.04.04.05.05.05.04.02.08.07.13.15.01.03.24.42.26.46.01.03,0,.05,0,.06-.12.15-.31.37-.33.39-.06.07-.12.12-.16.12-.04,0-.06.03-.07.04,0,.02,0,.04,0,.05,0,.01.02.02.04.02Z" class="cls-1"></path>
    <path d="M36.77,11.68h0c.1.01.2.04.23.06,0,0,.02,0,.03,0,0,0,.02,0,.03,0,0,0,.02-.02.02-.03,0-.01,0-.02,0-.03,0-.02-.02-.03-.04-.04-.03-.01-.08-.07-.07-.14,0-.02.05-.31.09-.54.06-.36.07-.4.07-.4.02-.07.09-.1.12-.1.02,0,.06,0,.07-.04h0s-.04-.06-.06-.07c-.03,0-.06,0-.09,0-.05,0-.11,0-.16-.01-.09-.02-.19-.04-.24-.06-.03-.01-.06,0-.08.03v.02s.03.05.04.06c.04.01.09.07.08.13l-.15.95c-.02.06-.08.1-.11.1-.03,0-.06.02-.06.05,0,.04.02.06.06.06.06,0,.14,0,.23.02Z" class="cls-1"></path>
  </g>
  <g>
    <path d="M292.68,11.36c-1.67.19-2.43.57-5.06.57s-3.39-.38-4.96-.57c-.57-.05-.91.05-.91.52s.38.62.81.76c1.29.33,3.34,1.86,3.34,4.24v14.07c0,9.54-4.96,16.17-11.5,16.17s-10.68-5.72-10.68-16.08v-14.17c0-2.34,2.48-4.01,3.34-4.24.43-.14.81-.29.81-.76s-.33-.57-.95-.52c-1.62.19-4.58.57-7.2.57s-5.15-.38-6.73-.57c-.57-.05-.95.05-.95.52s.38.62.86.76c1.29.33,3.29,1.91,3.29,4.24,0,.14.05,13.93.05,14.17,0,8.35,4.01,19.18,18.13,19.18,10.73,0,15.07-9.59,15.07-19.32v-14.02c0-2.38,2.05-3.91,3.34-4.24.48-.14.86-.29.86-.76s-.38-.57-.95-.52Z" class="cls-1"></path>
    <path d="M386.32,48.13c-1.29-.33-3.24-1.81-3.34-4.2v-27.09c.1-2.39,2.05-3.86,3.34-4.25.43-.1.81-.29.81-.72,0-.48-.33-.62-.91-.57-1.67.19-4.01.57-6.63.57s-5.29-.38-6.87-.57c-.62-.05-.95.1-.95.57,0,.43.38.62.86.72,1.29.38,3.2,1.91,3.29,4.25v7.15c0,1.57-.19,2.86-1.86,2.86h-14.79c-1.67,0-1.86-1.29-1.86-2.86v-7.15c.05-2.43,2-3.91,3.34-4.25.43-.1.81-.29.81-.76,0-.43-.33-.57-.95-.53-1.62.19-3.96.57-6.63.57-2.48,0-5.29-.38-6.87-.57-.57-.05-.91.1-.91.53,0,.48.38.67.81.76,1.34.33,3.24,1.86,3.34,4.25v27.05c-.1,2.38-2,3.91-3.34,4.24-.43.1-.81.29-.81.76,0,.43.33.57.91.52,1.57-.19,4.39-.57,6.87-.57,2.67,0,5.01.38,6.63.57.62.05.95-.1.95-.52,0-.48-.38-.67-.81-.76-1.34-.33-3.29-1.81-3.34-4.24v-11.02c0-1.57.19-2.86,1.81-2.91h14.88c1.67.05,1.81,1.34,1.81,2.91v11.07c-.1,2.34-2,3.86-3.29,4.2-.48.14-.86.33-.86.76,0,.48.33.62.95.52,1.57-.14,4.34-.57,6.87-.57s4.96.38,6.63.57c.57.1.91-.05.91-.52,0-.43-.38-.62-.81-.76Z" class="cls-1"></path>
    <path d="M328.94,26.19c.05.29,1.14,1.05,1.29.72.81-1.43,4.72-8.49,5.39-9.68.1-.19-.33-.72-.72-1-.14-.1-.62-.19-.76-.19-2.24-.52-5.63-5.15-13.12-5.15-10.88,0-19.56,8.87-19.56,19.65s8.78,19.7,19.65,19.7c7.11,0,9.59-4.05,11.45-2.1.19.19,1.62-.14,1.57-.48-.1-1.34.86-8.87,1.19-10.3.14-.67-1-1.81-1.38-1.19-.76,1-5.06,10.97-12.83,10.97-6.58-.05-11.64-7.44-11.64-16.6s5.01-16.6,11.54-16.6c2,0,4.15.62,6.01,2.1,4.01,3.29,1.57,8.82,1.91,10.16Z" class="cls-1"></path>
    <path d="M140.71,10.88c-12.83,0-19.08,10.49-19.08,19.7s6.63,19.65,19.08,19.65,19.03-10.54,19.03-19.65-6.25-19.7-19.03-19.7ZM149.29,31.01c1.81,1.76,2.96,4.05,2.96,7.44,0,4.67-5.68,8.92-11.54,8.92s-11.54-4.25-11.54-8.92c0-3.39,1.14-5.68,2.91-7.44,0,0,.38-.33.38-.43,0-.19-.14-.29-.38-.52-1.67-1.67-2.91-4.05-2.91-7.35,0-4.77,5.63-9.02,11.54-9.02s11.54,4.25,11.54,9.02c0,3.29-1.29,5.68-2.96,7.35-.24.24-.33.33-.33.52,0,.1.33.43.33.43Z" class="cls-1"></path>
    <path d="M110.76,43.75c-1.36-.4-1.3-1.24-1.3-2.74v-6.32c0-.88-.01-1.78.29-2.61.22-.61-.26-1.25-.91-1.25h-10.91v.72c0,1.83.68,1.98,1.55,2.18,1.13.25,2.42.54,2.42,4.54v3.53c0,1.06-.12,1.97-.37,2.74-1.43,1.28-3.52,2.88-7.16,2.88-6.93,0-12.08-7.81-12.08-16.92,0-19.06,14.33-16.71,14.33-16.71,3.91.8,5.37,3.83,6.46,6.19.95,2.07,1.78,3.85,4.01,3.85h1.52v-7.01s0,0,0-.01c0-1.29.03-1.6.08-2.22.02-.22.04-.49.06-.84.02-.14-.03-.26-.15-.34-.25-.18-.77-.12-.97-.02-.94.54-2.54.45-2.57.45-.66,0-1.4-.25-2.27-.55-.02,0-.03-.01-.05-.02-.16-.07-.32-.14-.5-.23-1.24-.57-3.1-2.1-7.97-2.1-10.82,0-18.86,8.83-18.86,19.55,0,21.2,20.08,19.67,20.09,19.72,4.53-.14,16.12-1.78,16.12-5.39,0,0,.1-.53-.19-.79-.29-.25-.42-.21-.65-.28Z" class="cls-1"></path>
    <path d="M219.9,19.66c0-4.67,5.53-5.72,7.87-5.72,8.06,0,8.59,5.72,9.44,6.73.19.19,1.43.24,1.43-.1-.14-1.53-.29-3.53-.29-5.29s.05-1.72.14-3.1c.05-.33-.67-.29-.86-.19-1,.57-2.67.48-2.67.48-1.72,0-3.82-1.57-7.63-1.57-9.87,0-12.69,5.72-12.69,10.54,0,11.97,23.04,9.73,23.18,18.03.05,4.05-4.72,7.68-9.44,7.68-7.82,0-11.26-8.63-11.97-9.64-.43-.57-1.72.52-1.53,1.19.33,1.48.33,3.72.33,5.48s-.24,2.1-.33,3.48c-.05.33,1.53.67,1.72.43,1.86-1.96,4.67,2.15,11.78,2.15s14.74-3.58,14.74-12.59c0-15.26-23.23-9.49-23.23-17.98Z" class="cls-1"></path>
    <path d="M203.86,48.09c-4.29-2.15-4.96-5.25-5.77-8.25-1.48-5.63-1.34-6.96-4.25-8.59,3.1-1.57,5.53-5.68,5.53-9.11,0-5.68-6.15-10.64-11.73-10.68-1.05,0-10.68.57-11.54.57-2.48,0-5.2-.38-6.73-.52-.62-.1-.95.05-.95.52,0,.43.38.62.81.72,1.34.38,3.34,1.96,3.34,4.24v26.9c0,2.38-2,3.86-3.34,4.24-.43.1-.81.29-.81.72,0,.48.33.62.95.53,1.53-.14,4.24-.53,6.73-.53s5.82.43,6.68.53c.62.09,1-.05,1-.53,0-.43-.43-.62-.86-.72-1.34-.38-3.34-2-3.34-4.24v-9.78c0-1.38.86-1.72,2.1-1.72,3.86,0,8.01-1.05,9.01,5.01,2.19,13.31,1.96,12.02,12.78,12.02.81,0,.72-1.14.38-1.34ZM186.55,29.67c-2.39,0-6.96-.19-6.96-1.24v-12.21c0-1.48,4.58-1.72,6.96-1.72,3.72,0,6.06,3.2,6.06,7.3s-2.34,7.87-6.06,7.87Z" class="cls-1"></path>
  </g>
</svg>